<?xml version="1.0" ?><!DOCTYPE svg  PUBLIC '-//W3C//DTD SVG 1.1//EN'  'http://www.w3.org/Graphics/SVG/1.1/DTD/svg11.dtd'><svg class="icon" height="128.00px" version="1.1" viewBox="0 0 1024 1024" width="128px" xmlns="http://www.w3.org/2000/svg"><path d="M950.86 950.86H73.14c-34.57 0-62.69-28.12-62.69-62.69V135.84c0-34.57 28.12-62.69 62.69-62.69h877.71c34.57 0 62.69 28.12 62.69 62.69v752.33c0.01 34.56-28.11 62.69-62.68 62.69zM73.14 114.94c-11.52 0-20.9 9.38-20.9 20.9v752.33c0 11.53 9.38 20.9 20.9 20.9h877.71c11.53 0 20.9-9.37 20.9-20.9V135.84c0-11.52-9.37-20.9-20.9-20.9H73.14z" fill="#333333"/><path d="M459.76 323.92H125.39c-11.54 0-20.9-9.36-20.9-20.9s9.36-20.9 20.9-20.9h334.37c11.54 0 20.9 9.36 20.9 20.9-0.01 11.54-9.36 20.9-20.9 20.9z" fill="#333333"/><path d="M292.57 741.88c-11.54 0-20.9-9.35-20.9-20.9V303.02c0-11.54 9.36-20.9 20.9-20.9s20.9 9.36 20.9 20.9v417.96c0 11.55-9.36 20.9-20.9 20.9z" fill="#333333"/><path d="M794.12 438.86H543.35c-11.55 0-20.9-9.36-20.9-20.9s9.35-20.9 20.9-20.9h250.78c11.55 0 20.9 9.36 20.9 20.9-0.01 11.54-9.36 20.9-20.91 20.9zM877.71 626.94H543.35c-11.55 0-20.9-9.35-20.9-20.9s9.35-20.9 20.9-20.9h334.37c11.55 0 20.9 9.35 20.9 20.9s-9.35 20.9-20.91 20.9z" fill="#333333"/></svg>